<svg xmlns="http://www.w3.org/2000/svg" xmlns:xlink="http://www.w3.org/1999/xlink" width="96" height="32" viewBox="0 0 96 32"><defs><linearGradient id="a" x1="4" y1="16.08" x2="92" y2="16.08" gradientUnits="userSpaceOnUse"><stop offset="0" stop-color="#ff7e69"/><stop offset="0.54" stop-color="#8759f7"/><stop offset="1" stop-color="#73fad1"/></linearGradient></defs><polygon points="92 28.08 84 4.08 76 4.08 72 16.08 68 4.08 60 4.08 56 16.08 52 4.08 44 4.08 40 16.08 36 4.08 28 4.08 24 16.08 20 4.08 12 4.08 4 28.08 12 28.08 16 16.08 20 28.08 28 28.08 32 16.08 36 28.08 44 28.08 48 16.08 52 28.08 60 28.08 64 16.08 68 28.08 76 28.08 80 16.08 84 28.08 92 28.08" fill="url(#a)"/><g opacity="0.15"><polygon points="12 4 4 28 12 28 16 16 12 4" fill="#222"/><polygon points="28 4 20 28 28 28 32 16 28 4" fill="#222"/><polygon points="44 4 36 28 44 28 48 16 44 4" fill="#222"/><polygon points="60 4 52 28 60 28 64 16 60 4" fill="#222"/><polygon points="76 4 68 28 76 28 80 16 76 4" fill="#222"/></g></svg>